<mxfile host="Electron" agent="Mozilla/5.0 (Windows NT 10.0; Win64; x64) AppleWebKit/537.36 (KHTML, like Gecko) draw.io/24.7.5 Chrome/126.0.6478.183 Electron/31.3.0 Safari/537.36" version="24.7.5">
  <diagram name="第 1 页" id="QAm18azOX-zAT04Hg-1n">
    <mxGraphModel dx="943" dy="705" grid="1" gridSize="10" guides="1" tooltips="1" connect="1" arrows="1" fold="1" page="1" pageScale="1" pageWidth="827" pageHeight="1169" math="0" shadow="0">
      <root>
        <mxCell id="0" />
        <mxCell id="1" parent="0" />
        <mxCell id="tXQxea_YoVQhc8uDO9fd-7" style="rounded=0;orthogonalLoop=1;jettySize=auto;html=1;exitX=0;exitY=1;exitDx=0;exitDy=0;entryX=0.5;entryY=0;entryDx=0;entryDy=0;" edge="1" parent="1" source="tXQxea_YoVQhc8uDO9fd-1" target="tXQxea_YoVQhc8uDO9fd-6">
          <mxGeometry relative="1" as="geometry" />
        </mxCell>
        <mxCell id="tXQxea_YoVQhc8uDO9fd-9" style="rounded=0;orthogonalLoop=1;jettySize=auto;html=1;exitX=1;exitY=1;exitDx=0;exitDy=0;entryX=0.5;entryY=0;entryDx=0;entryDy=0;" edge="1" parent="1" source="tXQxea_YoVQhc8uDO9fd-1" target="tXQxea_YoVQhc8uDO9fd-8">
          <mxGeometry relative="1" as="geometry" />
        </mxCell>
        <mxCell id="tXQxea_YoVQhc8uDO9fd-1" value="&lt;font style=&quot;font-size: 16px;&quot;&gt;[0,7]&lt;/font&gt;" style="ellipse;whiteSpace=wrap;html=1;fillColor=#d5e8d4;strokeColor=#82b366;" vertex="1" parent="1">
          <mxGeometry x="260" y="330" width="60" height="50" as="geometry" />
        </mxCell>
        <mxCell id="tXQxea_YoVQhc8uDO9fd-3" style="rounded=0;orthogonalLoop=1;jettySize=auto;html=1;exitX=0;exitY=1;exitDx=0;exitDy=0;entryX=0.5;entryY=0;entryDx=0;entryDy=0;" edge="1" parent="1" source="tXQxea_YoVQhc8uDO9fd-2" target="tXQxea_YoVQhc8uDO9fd-1">
          <mxGeometry relative="1" as="geometry" />
        </mxCell>
        <mxCell id="tXQxea_YoVQhc8uDO9fd-5" style="rounded=0;orthogonalLoop=1;jettySize=auto;html=1;exitX=1;exitY=1;exitDx=0;exitDy=0;entryX=0.5;entryY=0;entryDx=0;entryDy=0;" edge="1" parent="1" source="tXQxea_YoVQhc8uDO9fd-2" target="tXQxea_YoVQhc8uDO9fd-4">
          <mxGeometry relative="1" as="geometry" />
        </mxCell>
        <mxCell id="tXQxea_YoVQhc8uDO9fd-2" value="&lt;font style=&quot;font-size: 16px;&quot;&gt;[0,15]&lt;/font&gt;" style="ellipse;whiteSpace=wrap;html=1;fillColor=#d5e8d4;strokeColor=#82b366;" vertex="1" parent="1">
          <mxGeometry x="425" y="240" width="60" height="50" as="geometry" />
        </mxCell>
        <mxCell id="tXQxea_YoVQhc8uDO9fd-11" style="rounded=0;orthogonalLoop=1;jettySize=auto;html=1;exitX=0;exitY=1;exitDx=0;exitDy=0;entryX=0.5;entryY=0;entryDx=0;entryDy=0;" edge="1" parent="1" source="tXQxea_YoVQhc8uDO9fd-4" target="tXQxea_YoVQhc8uDO9fd-10">
          <mxGeometry relative="1" as="geometry" />
        </mxCell>
        <mxCell id="tXQxea_YoVQhc8uDO9fd-13" style="rounded=0;orthogonalLoop=1;jettySize=auto;html=1;exitX=1;exitY=1;exitDx=0;exitDy=0;entryX=0.5;entryY=0;entryDx=0;entryDy=0;" edge="1" parent="1" source="tXQxea_YoVQhc8uDO9fd-4" target="tXQxea_YoVQhc8uDO9fd-12">
          <mxGeometry relative="1" as="geometry" />
        </mxCell>
        <mxCell id="tXQxea_YoVQhc8uDO9fd-4" value="&lt;font style=&quot;font-size: 16px;&quot;&gt;[8,15]&lt;/font&gt;" style="ellipse;whiteSpace=wrap;html=1;fillColor=#d5e8d4;strokeColor=#82b366;" vertex="1" parent="1">
          <mxGeometry x="595" y="320" width="60" height="50" as="geometry" />
        </mxCell>
        <mxCell id="tXQxea_YoVQhc8uDO9fd-6" value="&lt;font style=&quot;font-size: 16px;&quot;&gt;[0,3]&lt;/font&gt;" style="ellipse;whiteSpace=wrap;html=1;fillColor=#d5e8d4;strokeColor=#82b366;" vertex="1" parent="1">
          <mxGeometry x="160" y="410" width="60" height="50" as="geometry" />
        </mxCell>
        <mxCell id="tXQxea_YoVQhc8uDO9fd-8" value="&lt;font style=&quot;font-size: 16px;&quot;&gt;[4,7]&lt;/font&gt;" style="ellipse;whiteSpace=wrap;html=1;fillColor=#d5e8d4;strokeColor=#82b366;" vertex="1" parent="1">
          <mxGeometry x="335" y="410" width="60" height="50" as="geometry" />
        </mxCell>
        <mxCell id="tXQxea_YoVQhc8uDO9fd-10" value="&lt;font style=&quot;font-size: 16px;&quot;&gt;[8,11]&lt;/font&gt;" style="ellipse;whiteSpace=wrap;html=1;fillColor=#d5e8d4;strokeColor=#82b366;" vertex="1" parent="1">
          <mxGeometry x="520" y="410" width="60" height="50" as="geometry" />
        </mxCell>
        <mxCell id="tXQxea_YoVQhc8uDO9fd-12" value="&lt;font style=&quot;font-size: 16px;&quot;&gt;[12,15]&lt;/font&gt;" style="ellipse;whiteSpace=wrap;html=1;fillColor=#d5e8d4;strokeColor=#82b366;" vertex="1" parent="1">
          <mxGeometry x="680" y="410" width="60" height="50" as="geometry" />
        </mxCell>
        <mxCell id="tXQxea_YoVQhc8uDO9fd-14" value="&lt;font style=&quot;font-size: 16px;&quot;&gt;(1,2)&lt;/font&gt;" style="rounded=0;whiteSpace=wrap;html=1;fillColor=#f8cecc;strokeColor=#b85450;" vertex="1" parent="1">
          <mxGeometry x="110" y="480" width="40" height="40" as="geometry" />
        </mxCell>
        <mxCell id="tXQxea_YoVQhc8uDO9fd-15" value="&lt;span style=&quot;font-size: 16px;&quot;&gt;(1,3)&lt;/span&gt;" style="rounded=0;whiteSpace=wrap;html=1;fillColor=#f8cecc;strokeColor=#b85450;" vertex="1" parent="1">
          <mxGeometry x="150" y="480" width="40" height="40" as="geometry" />
        </mxCell>
        <mxCell id="tXQxea_YoVQhc8uDO9fd-16" value="" style="rounded=0;whiteSpace=wrap;html=1;" vertex="1" parent="1">
          <mxGeometry x="190" y="480" width="40" height="40" as="geometry" />
        </mxCell>
        <mxCell id="tXQxea_YoVQhc8uDO9fd-17" value="" style="rounded=0;whiteSpace=wrap;html=1;" vertex="1" parent="1">
          <mxGeometry x="230" y="480" width="40" height="40" as="geometry" />
        </mxCell>
        <mxCell id="tXQxea_YoVQhc8uDO9fd-18" value="&lt;span style=&quot;font-size: 16px;&quot;&gt;(3,4)&lt;/span&gt;" style="rounded=0;whiteSpace=wrap;html=1;fillColor=#f8cecc;strokeColor=#b85450;" vertex="1" parent="1">
          <mxGeometry x="280" y="480" width="40" height="40" as="geometry" />
        </mxCell>
        <mxCell id="tXQxea_YoVQhc8uDO9fd-19" value="&lt;span style=&quot;font-size: 16px;&quot;&gt;(2,4)&lt;/span&gt;" style="rounded=0;whiteSpace=wrap;html=1;fillColor=#f8cecc;strokeColor=#b85450;" vertex="1" parent="1">
          <mxGeometry x="320" y="480" width="40" height="40" as="geometry" />
        </mxCell>
        <mxCell id="tXQxea_YoVQhc8uDO9fd-20" value="" style="rounded=0;whiteSpace=wrap;html=1;" vertex="1" parent="1">
          <mxGeometry x="360" y="480" width="40" height="40" as="geometry" />
        </mxCell>
        <mxCell id="tXQxea_YoVQhc8uDO9fd-21" value="" style="rounded=0;whiteSpace=wrap;html=1;" vertex="1" parent="1">
          <mxGeometry x="400" y="480" width="40" height="40" as="geometry" />
        </mxCell>
        <mxCell id="tXQxea_YoVQhc8uDO9fd-22" value="&lt;span style=&quot;font-size: 16px;&quot;&gt;(2,3)&lt;/span&gt;" style="rounded=0;whiteSpace=wrap;html=1;fillColor=#f8cecc;strokeColor=#b85450;" vertex="1" parent="1">
          <mxGeometry x="460" y="480" width="40" height="40" as="geometry" />
        </mxCell>
        <mxCell id="tXQxea_YoVQhc8uDO9fd-23" value="" style="rounded=0;whiteSpace=wrap;html=1;" vertex="1" parent="1">
          <mxGeometry x="500" y="480" width="40" height="40" as="geometry" />
        </mxCell>
        <mxCell id="tXQxea_YoVQhc8uDO9fd-24" value="" style="rounded=0;whiteSpace=wrap;html=1;" vertex="1" parent="1">
          <mxGeometry x="540" y="480" width="40" height="40" as="geometry" />
        </mxCell>
        <mxCell id="tXQxea_YoVQhc8uDO9fd-25" value="" style="rounded=0;whiteSpace=wrap;html=1;" vertex="1" parent="1">
          <mxGeometry x="580" y="480" width="40" height="40" as="geometry" />
        </mxCell>
        <mxCell id="tXQxea_YoVQhc8uDO9fd-26" value="&lt;span style=&quot;font-size: 16px;&quot;&gt;(4,5)&lt;/span&gt;" style="rounded=0;whiteSpace=wrap;html=1;fillColor=#f8cecc;strokeColor=#b85450;" vertex="1" parent="1">
          <mxGeometry x="630" y="480" width="40" height="40" as="geometry" />
        </mxCell>
        <mxCell id="tXQxea_YoVQhc8uDO9fd-27" value="" style="rounded=0;whiteSpace=wrap;html=1;" vertex="1" parent="1">
          <mxGeometry x="670" y="480" width="40" height="40" as="geometry" />
        </mxCell>
        <mxCell id="tXQxea_YoVQhc8uDO9fd-28" value="" style="rounded=0;whiteSpace=wrap;html=1;" vertex="1" parent="1">
          <mxGeometry x="710" y="480" width="40" height="40" as="geometry" />
        </mxCell>
        <mxCell id="tXQxea_YoVQhc8uDO9fd-29" value="" style="rounded=0;whiteSpace=wrap;html=1;" vertex="1" parent="1">
          <mxGeometry x="750" y="480" width="40" height="40" as="geometry" />
        </mxCell>
        <mxCell id="tXQxea_YoVQhc8uDO9fd-31" value="&lt;div style=&quot;text-align: center;&quot;&gt;&lt;span style=&quot;background-color: initial; font-size: 16px;&quot;&gt;1&lt;/span&gt;&lt;/div&gt;" style="text;whiteSpace=wrap;html=1;" vertex="1" parent="1">
          <mxGeometry x="120" y="530" width="10" height="40" as="geometry" />
        </mxCell>
        <mxCell id="tXQxea_YoVQhc8uDO9fd-32" value="&lt;div style=&quot;text-align: center;&quot;&gt;&lt;span style=&quot;background-color: initial; font-size: 16px;&quot;&gt;2&lt;/span&gt;&lt;/div&gt;" style="text;whiteSpace=wrap;html=1;" vertex="1" parent="1">
          <mxGeometry x="160" y="530" width="10" height="40" as="geometry" />
        </mxCell>
        <mxCell id="tXQxea_YoVQhc8uDO9fd-33" value="&lt;div style=&quot;text-align: center;&quot;&gt;&lt;span style=&quot;background-color: initial; font-size: 16px;&quot;&gt;3&lt;/span&gt;&lt;/div&gt;" style="text;whiteSpace=wrap;html=1;" vertex="1" parent="1">
          <mxGeometry x="295" y="530" width="10" height="40" as="geometry" />
        </mxCell>
        <mxCell id="tXQxea_YoVQhc8uDO9fd-34" value="&lt;div style=&quot;text-align: center;&quot;&gt;&lt;span style=&quot;background-color: initial; font-size: 16px;&quot;&gt;4&lt;/span&gt;&lt;/div&gt;" style="text;whiteSpace=wrap;html=1;" vertex="1" parent="1">
          <mxGeometry x="335" y="530" width="10" height="40" as="geometry" />
        </mxCell>
        <mxCell id="tXQxea_YoVQhc8uDO9fd-35" value="&lt;div style=&quot;text-align: center;&quot;&gt;&lt;span style=&quot;background-color: initial; font-size: 16px;&quot;&gt;5&lt;/span&gt;&lt;/div&gt;" style="text;whiteSpace=wrap;html=1;" vertex="1" parent="1">
          <mxGeometry x="475" y="530" width="10" height="40" as="geometry" />
        </mxCell>
        <mxCell id="tXQxea_YoVQhc8uDO9fd-36" value="&lt;div style=&quot;text-align: center;&quot;&gt;&lt;span style=&quot;background-color: initial; font-size: 16px;&quot;&gt;6&lt;/span&gt;&lt;/div&gt;" style="text;whiteSpace=wrap;html=1;" vertex="1" parent="1">
          <mxGeometry x="645" y="528" width="10" height="40" as="geometry" />
        </mxCell>
      </root>
    </mxGraphModel>
  </diagram>
</mxfile>
